<svg width="20" height="20" viewBox="0 0 20 20" fill="none" xmlns="http://www.w3.org/2000/svg">
<path d="M7.15074 10.652H9.34305V19.6774C9.34305 19.8556 9.48742 20 9.66563 20H13.3828C13.561 20 13.7054 19.8556 13.7054 19.6774V10.6945H16.2256C16.3895 10.6945 16.5274 10.5716 16.5461 10.4088L16.9289 7.08609C16.9394 6.99469 16.9104 6.90313 16.8493 6.83453C16.788 6.7659 16.7004 6.7266 16.6085 6.7266H13.7055V4.64375C13.7055 4.0159 14.0436 3.6975 14.7104 3.6975C14.8055 3.6975 16.6085 3.6975 16.6085 3.6975C16.7867 3.6975 16.9311 3.55305 16.9311 3.37492V0.324961C16.9311 0.146758 16.7867 0.00238281 16.6085 0.00238281H13.9927C13.9742 0.00148437 13.9332 0 13.8729 0C13.419 0 11.8414 0.0891015 10.5952 1.23555C9.21438 2.50602 9.40633 4.02715 9.45219 4.2909V6.72652H7.1507C6.9725 6.72652 6.82812 6.8709 6.82812 7.0491V10.3294C6.82816 10.5075 6.97254 10.652 7.15074 10.652Z" fill="#30302F"/>
</svg>
