<svg width="20" height="20" viewBox="0 0 20 20" fill="none" xmlns="http://www.w3.org/2000/svg">
<g clip-path="url(#clip0_7762_1289)">
<path d="M7.12433 5.00344H5.43194L12.9054 14.996H14.5978L7.12433 5.00344Z" fill="#30302F"/>
<path fill-rule="evenodd" clip-rule="evenodd" d="M20 10C20 15.5228 15.5228 20 10 20C4.47715 20 0 15.5228 0 10C0 4.47715 4.47715 0 10 0C15.5228 0 20 4.47715 20 10ZM8.61977 10.5971L3.83989 4.20606H7.52385L10.6575 8.39591L14.5357 4.20606H15.6183L11.1411 9.04287L16.19 15.7933H12.5061L9.10364 11.2439L4.89239 15.7933H3.80976L8.61977 10.5971Z" fill="#30302F"/>
</g>
<defs>
<clipPath id="clip0_7762_1289">
<rect width="20" height="20" fill="white"/>
</clipPath>
</defs>
</svg>
