<svg width="20" height="20" viewBox="0 0 20 20" fill="none" xmlns="http://www.w3.org/2000/svg">
<path d="M7.95386 13.4143V7.46824L13.1811 10.4416L7.95386 13.4143ZM19.5806 5.59647C19.3445 4.72894 18.6777 4.05811 17.8302 3.82073L17.8122 3.81672C15.683 3.54599 13.2204 3.39129 10.7212 3.39129C10.4671 3.39129 10.2137 3.39263 9.96099 3.39596L9.99967 3.39529C9.78495 3.39263 9.53222 3.39062 9.27816 3.39062C6.77892 3.39062 4.31501 3.54533 1.89644 3.84473L2.18584 3.81539C1.32097 4.05745 0.654153 4.7276 0.422765 5.5778L0.418764 5.59514C0.152035 7.00147 0 8.61984 0 10.2736C0 10.3322 3.1129e-08 10.3909 0.000666853 10.4489V10.4396C0.000666853 10.4889 0 10.5476 0 10.6063C0 12.26 0.152702 13.8777 0.444104 15.4468L0.418764 15.2841C0.654819 16.1516 1.32164 16.8224 2.16917 17.0598L2.18718 17.0638C4.31634 17.3345 6.77892 17.4892 9.27816 17.4892C9.53156 17.4892 9.78495 17.4879 10.0383 17.4846L9.99967 17.4852C10.2144 17.4879 10.4678 17.4899 10.7212 17.4899C13.2211 17.4899 15.6843 17.3352 18.1029 17.0358L17.8135 17.0651C18.679 16.8238 19.3458 16.1529 19.5779 15.3027L19.5819 15.2854C19.848 13.8791 20 12.2607 20 10.6076C20 10.549 20 10.4903 19.9993 10.4323V10.4409C19.9993 10.3916 20 10.3329 20 10.2742C20 8.62051 19.8473 7.0028 19.5559 5.43377L19.5806 5.59647Z" fill="#30302F"/>
</svg>
